<svg xmlns="http://www.w3.org/2000/svg" xmlns:xlink="http://www.w3.org/1999/xlink" version="1.1" width="375pt" height="375pt" viewBox="0 0 375 375">
<defs>
<clipPath id="clip_1">
<path transform="matrix(.24,0,0,.24,0,0)" d="M0 0H1562.5V1562.5H0Z" fill-rule="evenodd"/>
</clipPath>
<clipPath id="clip_2">
<path transform="matrix(.24,0,0,.24,0,0)" d="M0 0H1562.5V1562.5H0Z" fill-rule="evenodd"/>
</clipPath>
<clipPath id="clip_3">
<path transform="matrix(.24,0,0,.24,0,0)" d="M879.5103 602.5247H1504.5103V877.5247H879.5103Z" fill-rule="evenodd"/>
</clipPath>
<clipPath id="clip_4">
<path transform="matrix(.24,0,0,.24,0,0)" d="M0 0H1562.5V1562.5H0Z" fill-rule="evenodd"/>
</clipPath>
<g id="font_5_572"></g>
<g id="font_5_583"></g>
<g id="font_5_585"></g>
<g id="font_5_602"></g>
<g id="font_5_612"></g>
<g id="font_5_608"></g>
<g id="font_5_607"></g>
</defs>
<g clip-path="url(#clip_1)">
<path transform="matrix(.75,0,0,.75,0,0)" d="M0 0H500V500H0Z" fill="#ffffff"/>
</g>
<g clip-path="url(#clip_2)">
<path transform="matrix(.75,0,0,.75,0,0)" d="M0 0H500V500H0Z" fill="#ffffff"/>
</g>
<g clip-path="url(#clip_3)">
<path transform="matrix(.07497751,0,0,.07459341,211.12746,101.91599)" d="M1031.11 709.19C731.81 707.79 474.37 755.31 437.22999 760.01 377.81999 767.53 358.31 808.38 358.31 808.38L243.24 1060.7C263.57 1058.24 289.79 1055.0599 320.90003 1051.2799 327.90003 572.44998 1536.03 757.3899 1576.51 784.3499 1405.34 728.49 1210.69 710.03 1031.11 709.19Z" fill="#ff0000"/>
<path transform="matrix(.07497751,0,0,.07459341,211.12746,101.91599)" d="M762.7 775.88C762.7 775.88 1076.2 722.07 1572.19 810.97006 1567.5099 806.29006 1668.11 890.52 1721.9199 1063.64 1719.58 1061.31 386.03 946.67 0 1248.47 7.02 1239.11 166.11 1073 643.38 1030.89 1120.65 988.78 1689.17 1098.74 1621.3201 937.31 1553.47 775.88 1183.82 775.88 762.7 775.88Z" fill="#ff0000"/>
<path transform="matrix(.07497751,0,0,.07459341,211.12746,101.91599)" d="M250.33 1058.38 209.97 1095.81C209.97 1095.81 183.07 1061.3 91.24 1064.81-.59000399 1068.3201 49.71 966.55007 104.11 965.38009 158.5 964.2101 211.15 954.85006 207.05 982.93008 202.95001 1011.0101 202.37001 1047.8501 194.18001 1051.3601 185.99 1054.8701 194.76001 971.2301 126.920009 984.1001 59.070009 996.9701 72.53001 1024.4601 89.490009 1030.8901 106.450008 1037.3202 131.02 1020.95016 151.49 1044.9302 171.96 1068.91 232.2 1081.78 250.33 1058.38Z" fill="#ff0000"/>
<path transform="matrix(.07497751,0,0,.07459341,211.12746,101.91599)" d="M1717.74 1062.5 1758.1 1099.93C1758.1 1099.93 1785 1065.42 1876.83 1068.93 1968.6599 1072.4401 1918.36 970.67007 1863.96 969.50009 1809.5599 968.3301 1756.9199 958.97006 1761.02 987.05007 1765.11 1015.12008 1765.7001 1051.9701 1773.89 1055.4801 1782.08 1058.9901 1773.3 975.3501 1841.15 988.2201 1909 1001.0901 1895.55 1028.5801 1878.5801 1035.0101 1861.6201 1041.4402 1837.05 1025.0702 1816.5801 1049.0502 1796.11 1073.02 1735.87 1085.89 1717.74 1062.5Z" fill="#ff0000"/>
<path transform="matrix(.07497751,0,0,.07459341,211.12746,101.91599)" d="M1059.3 1068.32C832.03 1069.09 583.44009 1094 309.12007 1177.12L309.57008 1177.03C731.4501 1075.99 1219 1078.0901 1569.04 1103.41 1567.88 1103.4701 1567.3401 1103.4601 1566.16 1103.51 1519.24 1105.91 1490.8 1112.83 1428.39 1118.4 1365.97 1123.97 1303.22 1131.09 1254.93 1139.79 1230.79 1144.14 1210.28 1148.87 1195.0901 1154.06 1187.4901 1156.66 1181.2301 1159.38 1176.43 1162.3201 1171.63 1165.26 1168.1001 1168.42 1166.66 1172.53 1165.17 1176.8 1167.0801 1181.3301 1170.61 1184.64 1614.34 1457.0901 1916.9299 940.36 1989.9099 1290.84 1993.34 1290.6 1996.7399 1290.38 1999.9999 1290.3099 1985.0899 1185.1299 1930.8999 1159.22 1909.6699 1123.83 1903.0599 1112.8099 1894.2799 1107.64 1885.2899 1106.82 1876.3099 1106.0099 1867.4199 1109.25 1859.5399 1113.57 1801.4899 1157.08 1730.7799 1184.2999 1663.1299 1197.1 1592.7199 1209.7899 1513.0598 1214.95 1438.6699 1214.88 1080.83 1150.42 1502.0299 1121.77 1681.58 1104.38 1492.5 1090.92 1286.55 1067.55 1059.3 1068.32Z" fill="#ff0000"/>
</g>
<g clip-path="url(#clip_4)">
<path transform="matrix(.12762,0,0,.12762,-7.082756,168.54843)" stroke-width="28.720969" stroke-linecap="butt" stroke-miterlimit="4" stroke-linejoin="miter" fill="none" stroke="#0d1216" d="M281.01008-8.828995V211.73404H305.4672V224H186.0236V211.73404H210.55554V-8.828995H186.0236V-21.09497H305.4672V-8.828995H281.01008ZM267.17347-8.828995H224.31735V211.73404H267.17347V-8.828995ZM525.1406 49.35956H511.37886V-8.828995H456.182V211.73404H480.71394V224H361.27033V211.73404H385.72749V-8.828995H330.6054V49.35956H316.8436V-21.09497H330.6054 525.1406V49.35956ZM442.42018-8.828995H399.5641V211.73404H442.42018V-8.828995ZM784.34927-8.828995H763.7814L695.4958 224H622.274L553.91366-8.828995H533.4205V-21.09497H623.47067 660.26858V-8.828995H627.1355L688.0914 198.86972 749.122-8.828995H715.98898V-21.09497H767.44619 784.34927V-8.828995ZM677.09689 211.73404 613.07449-8.828995H568.64779L632.6701 211.73404H677.09689ZM839.1248 15.702942 792.6039-31.191956 839.42398-77.78766 886.0197-30.892777 839.1248 15.702942ZM811.0028-31.191956 839.1248-2.6960145 867.6207-30.892777 839.42398-59.388704 811.0028-31.191956ZM902.848 211.73404V224H836.43228L807.93637 195.50406V52.42604H783.4044V40.16008H849.8949L878.39089 68.65602V211.73404H902.848ZM843.1636 211.73404H864.55429V73.891498L843.1636 52.42604H821.6982V190.26859L843.1636 211.73404ZM1073.8316 161.47348V198.57056L1048.4021 224H951.91989L931.05276 203.1329V227.0665H917.2909V161.17432H931.05276V184.2104L958.6512 211.73404H1023.27188L920.3574 102.68659V65.58952L945.78689 40.16008H1036.1362L1057.0033 61.027177V37.093584H1070.7651V102.98576H1057.0033V80.024478L1029.4048 52.42604H970.9171L1073.8316 161.47348ZM1059.995 166.40979 952.5182 52.42604 934.1192 70.825V97.75029L1041.6708 211.73404 1059.995 193.33509V166.40979ZM1147.0055 15.702942 1100.4846-31.191956 1147.3047-77.78766 1193.9004-30.892777 1147.0055 15.702942ZM1118.8836-31.191956 1147.0055-2.6960145 1175.5015-30.892777 1147.3047-59.388704 1118.8836-31.191956ZM1210.7286 211.73404V224H1144.313L1115.817 195.50406V52.42604H1091.285V40.16008H1157.7756L1186.2715 68.65602V211.73404H1210.7286ZM1151.0443 211.73404H1172.4349V73.891498L1151.0443 52.42604H1129.5789V190.26859L1151.0443 211.73404ZM1397.9423 71.7225V192.43758L1366.3799 224H1253.6676L1222.1052 192.43758V71.7225L1253.6676 40.16008H1366.3799L1397.9423 71.7225ZM1260.3989 211.73404H1281.8644V52.42604H1260.3989L1235.867 76.95798V187.2021L1260.3989 211.73404ZM1295.6262 52.42604V211.73404H1324.4213V52.42604H1295.6262ZM1384.1804 76.95798 1359.6486 52.42604H1338.1831V211.73404H1359.6486L1384.1804 187.2021V76.95798ZM1642.1045 211.73404V224H1572.5474L1547.1179 198.57056V52.42604H1525.6526L1504.2619 73.891498V211.73404H1519.5195V224H1409.2754V211.73404H1433.8074V52.42604H1409.2754V40.16008H1475.766L1497.5305 61.62552 1518.9213 40.16008H1589.0765L1617.5725 68.65602V211.73404H1642.1045ZM1490.4253 211.73404V73.891498L1469.0347 52.42604H1447.5692V211.73404H1490.4253ZM1579.2788 211.73404H1603.8107V73.891498L1582.3452 52.42604H1560.8798V193.33509L1579.2788 211.73404Z"/>
<g id="layer_1" data-name="P">
</g>
<use data-text="I" xlink:href="#font_5_572" transform="matrix(39.096387,0,0,-39.096387,15.874886,197.13532)" fill-opacity="0"/>
<use data-text="T" xlink:href="#font_5_583" transform="matrix(39.096387,0,0,-39.096387,31.396096,197.13532)" fill-opacity="0"/>
<use data-text="V" xlink:href="#font_5_585" transform="matrix(39.096387,0,0,-39.096387,60.60102,197.13532)" fill-opacity="0"/>
<use data-text="i" xlink:href="#font_5_602" transform="matrix(39.096387,0,0,-39.096387,92.11262,197.13532)" fill-opacity="0"/>
<use data-text="s" xlink:href="#font_5_612" transform="matrix(39.096387,0,0,-39.096387,107.633838,197.13532)" fill-opacity="0"/>
<use data-text="i" xlink:href="#font_5_602" transform="matrix(39.096387,0,0,-39.096387,131.40436,197.13532)" fill-opacity="0"/>
<use data-text="o" xlink:href="#font_5_608" transform="matrix(39.096387,0,0,-39.096387,146.92557,197.13532)" fill-opacity="0"/>
<use data-text="n" xlink:href="#font_5_607" transform="matrix(39.096387,0,0,-39.096387,171.98627,197.13532)" fill-opacity="0"/>
<g id="layer_1" data-name="H1">
<g id="layer_2" data-name="P">
</g>
<use data-text="I" xlink:href="#font_5_572" transform="matrix(39.096387,0,0,-39.096387,15.874886,197.13532)" fill="#ffffff"/>
<use data-text="T" xlink:href="#font_5_583" transform="matrix(39.096387,0,0,-39.096387,31.396096,197.13532)" fill="#ffffff"/>
<use data-text="V" xlink:href="#font_5_585" transform="matrix(39.096387,0,0,-39.096387,60.60102,197.13532)" fill="#ffffff"/>
<use data-text="i" xlink:href="#font_5_602" transform="matrix(39.096387,0,0,-39.096387,92.11262,197.13532)" fill="#ffffff"/>
<use data-text="s" xlink:href="#font_5_612" transform="matrix(39.096387,0,0,-39.096387,107.633838,197.13532)" fill="#ffffff"/>
<use data-text="i" xlink:href="#font_5_602" transform="matrix(39.096387,0,0,-39.096387,131.40436,197.13532)" fill="#ffffff"/>
<use data-text="o" xlink:href="#font_5_608" transform="matrix(39.096387,0,0,-39.096387,146.92557,197.13532)" fill="#ffffff"/>
<use data-text="n" xlink:href="#font_5_607" transform="matrix(39.096387,0,0,-39.096387,171.98627,197.13532)" fill="#ffffff"/>
</g>
</g>
</svg>
